<svg width="16" height="16" viewBox="0 0 16 16" fill="none" xmlns="http://www.w3.org/2000/svg">
<g clip-path="url(#clip0_3400_57)">
<path d="M6.58546 12.0813C6.7712 12.2672 6.99173 12.4146 7.23447 12.5152C7.4772 12.6158 7.73738 12.6676 8.00013 12.6676C8.26288 12.6676 8.52306 12.6158 8.76579 12.5152C9.00853 12.4146 9.22906 12.2672 9.4148 12.0813L11.5555 9.94066C11.6702 9.81372 11.7318 9.64751 11.7274 9.47643C11.723 9.30536 11.653 9.14252 11.5319 9.02164C11.4107 8.90076 11.2477 8.83109 11.0767 8.82706C10.9056 8.82303 10.7395 8.88495 10.6128 8.99999L8.66213 10.9513L8.6668 0.666659C8.6668 0.489848 8.59656 0.320279 8.47153 0.195255C8.34651 0.0702303 8.17694 -7.62939e-06 8.00013 -7.62939e-06V-7.62939e-06C7.82332 -7.62939e-06 7.65375 0.0702303 7.52873 0.195255C7.4037 0.320279 7.33346 0.489848 7.33346 0.666659L7.32746 10.9387L5.38746 8.99999C5.26237 8.87499 5.09274 8.8048 4.91589 8.80486C4.73905 8.80492 4.56947 8.87523 4.44446 9.00033C4.31946 9.12542 4.24927 9.29505 4.24933 9.47189C4.24939 9.64874 4.3197 9.81832 4.4448 9.94333L6.58546 12.0813Z" fill="#7B3AFD"/>
<path d="M15.3333 10.6666C15.1565 10.6666 14.987 10.7368 14.8619 10.8618C14.7369 10.9869 14.6667 11.1564 14.6667 11.3332V13.9999C14.6667 14.1767 14.5964 14.3463 14.4714 14.4713C14.3464 14.5963 14.1768 14.6666 14 14.6666H2C1.82319 14.6666 1.65362 14.5963 1.5286 14.4713C1.40357 14.3463 1.33333 14.1767 1.33333 13.9999V11.3332C1.33333 11.1564 1.2631 10.9869 1.13807 10.8618C1.01305 10.7368 0.843478 10.6666 0.666667 10.6666V10.6666C0.489856 10.6666 0.320286 10.7368 0.195262 10.8618C0.0702379 10.9869 0 11.1564 0 11.3332L0 13.9999C0 14.5303 0.210714 15.039 0.585786 15.4141C0.960859 15.7892 1.46957 15.9999 2 15.9999H14C14.5304 15.9999 15.0391 15.7892 15.4142 15.4141C15.7893 15.039 16 14.5303 16 13.9999V11.3332C16 11.1564 15.9298 10.9869 15.8047 10.8618C15.6797 10.7368 15.5101 10.6666 15.3333 10.6666Z" fill="#7B3AFD"/>
</g>
<defs>
<clipPath id="clip0_3400_57">
<rect width="16" height="16" fill="white"/>
</clipPath>
</defs>
</svg>
